<svg viewBox="0 0 20 20" xmlns="http://www.w3.org/2000/svg" xmlns:xlink="http://www.w3.org/1999/xlink" width="20.000000" height="20.000000" fill="none">
	<rect id="svg" width="20.000000" height="20.000000" x="0.000000" y="0.000000" />
	<path id="14275" d="M13.3334 8.33333C13.3334 9.03726 13.1106 9.72312 12.6968 10.2926C12.283 10.8621 11.6996 11.286 11.0301 11.5035C10.3607 11.721 9.6395 11.721 8.97003 11.5035C8.30055 11.286 7.71712 10.8621 7.30336 10.2926C6.8896 9.72312 6.66675 9.03726 6.66675 8.33333" fill-rule="nonzero" stroke="rgb(96,165,250)" stroke-linecap="round" stroke-linejoin="round" stroke-width="2" />
	<path id="14276" d="M2.58582 5.02834L17.4142 5.02834" stroke="rgb(96,165,250)" stroke-linecap="round" stroke-linejoin="round" stroke-width="2" />
	<path id="14277" d="M2.58553 5.02878C2.52888 5.19872 2.5 5.37669 2.5 5.55582L2.5 16.6667C2.5 16.9592 2.57701 17.2466 2.72329 17.5C2.86957 17.7534 3.07997 17.9638 3.33333 18.11C3.5867 18.2563 3.87411 18.3333 4.16667 18.3333L15.8333 18.3333C16.1259 18.3333 16.4133 18.2563 16.6667 18.11C16.92 17.9638 17.1304 17.7534 17.2767 17.5C17.423 17.2466 17.5 16.9592 17.5 16.6667L17.5 5.55582C17.5 5.37669 17.4711 5.19872 17.4145 5.02878C17.3578 4.85883 17.2741 4.69913 17.1667 4.55582L15.5 2.33332C15.3448 2.12633 15.1434 1.95832 14.912 1.84261C14.6806 1.7269 14.4254 1.66666 14.1667 1.66666L5.83333 1.66666C5.57459 1.66666 5.3194 1.7269 5.08798 1.84261C4.85655 1.95832 4.65524 2.12633 4.5 2.33332L2.83333 4.55582C2.72585 4.69913 2.64218 4.85883 2.58553 5.02878Z" fill-rule="nonzero" stroke="rgb(96,165,250)" stroke-linecap="round" stroke-linejoin="round" stroke-width="2" />
	<rect id="path.[object SVGAnimatedString]" width="6.670000" height="3.000000" x="7.000000" y="8.000000" />
	<rect id="path.[object SVGAnimatedString]" width="15.000000" height="17.000000" x="3.000000" y="2.000000" />
</svg>
