<svg viewBox="0 0 48 48" xmlns="http://www.w3.org/2000/svg" xmlns:xlink="http://www.w3.org/1999/xlink" width="48.000000" height="48.000000" fill="none">
	<rect id="svg" width="48.000000" height="48.000000" x="0.000000" y="0.000000" />
	<path id="14279" d="M24 44L24 26" stroke="rgb(203,213,225)" stroke-linecap="round" stroke-linejoin="round" stroke-width="2" />
	<path id="14280" d="M31.97 3.99525C32.5407 3.99525 33.1019 4.14149 33.6 4.42L42 9.14C42.5949 9.4764 43.0899 9.96473 43.4342 10.5551C43.7786 11.1454 43.96 11.8166 43.96 12.5C43.96 13.1834 43.7786 13.8546 43.4342 14.4449C43.0899 15.0353 42.5949 15.5236 42 15.86L17.64 29.58C17.1404 29.865 16.5752 30.0148 16 30.0148C15.4249 30.0148 14.8596 29.865 14.36 29.58L6.00004 24.86C5.40513 24.5236 4.91021 24.0353 4.56585 23.4449C4.22149 22.8546 4.04004 22.1834 4.04004 21.5C4.04004 20.8166 4.22149 20.1454 4.56585 19.5551C4.91021 18.9647 5.40513 18.4764 6.00004 18.14L30.34 4.42C30.8382 4.14149 31.3993 3.99525 31.97 3.99525Z" fill-rule="nonzero" stroke="rgb(203,213,225)" stroke-linecap="round" stroke-linejoin="round" stroke-width="2" />
	<path id="14281" d="M40 26L40 33.74C40.0008 34.4949 39.7941 35.2355 39.4026 35.8809C39.0111 36.5264 38.4498 37.0519 37.78 37.4L25.78 43.56C25.2302 43.8457 24.6196 43.9949 24 43.9949C23.3804 43.9949 22.7698 43.8457 22.22 43.56L10.22 37.4C9.55017 37.0519 8.98886 36.5264 8.59736 35.8809C8.20586 35.2355 7.99922 34.4949 8 33.74L8 26" fill-rule="nonzero" stroke="rgb(203,213,225)" stroke-linecap="round" stroke-linejoin="round" stroke-width="2" />
	<path id="14282" d="M43.4342 23.4449C43.7786 22.8546 43.96 22.1834 43.96 21.5C43.96 20.8166 43.7786 20.1454 43.4342 19.5551C43.0899 18.9647 42.5949 18.4764 42 18.14L17.66 4.4C17.1638 4.11581 16.6019 3.96631 16.03 3.96631C15.4582 3.96631 14.8963 4.11581 14.4 4.4L6.00004 9.14C5.40514 9.4764 4.91021 9.96472 4.56585 10.5551C4.22149 11.1454 4.04004 11.8166 4.04004 12.5C4.04004 13.1834 4.22149 13.8546 4.56585 14.4449C4.91021 15.0353 5.40514 15.5236 6.00004 15.86L30.36 29.58C30.856 29.865 31.418 30.0149 31.99 30.0149C32.562 30.0149 33.1241 29.865 33.62 29.58L42 24.86C42.5949 24.5236 43.0899 24.0353 43.4342 23.4449Z" fill-rule="nonzero" stroke="rgb(203,213,225)" stroke-linecap="round" stroke-linejoin="round" stroke-width="2" />
	<rect id="path.[object SVGAnimatedString]" width="39.919998" height="26.000000" x="4.000000" y="4.000000" />
	<rect id="path.[object SVGAnimatedString]" width="32.000000" height="18.000000" x="8.000000" y="26.000000" />
	<rect id="path.[object SVGAnimatedString]" width="39.919998" height="26.000000" x="4.000000" y="4.000000" />
</svg>
