<svg viewBox="0 0 12 12" xmlns="http://www.w3.org/2000/svg" xmlns:xlink="http://www.w3.org/1999/xlink" width="12.000000" height="12.000000" fill="none">
	<rect id="svg" width="12.000000" height="12.000000" x="0.000000" y="0.000000" />
	<path id="14267" d="M5 1L5 2" stroke="rgb(30,41,59)" stroke-linecap="round" stroke-linejoin="round" stroke-width="2" />
	<path id="14268" d="M7 1L7 2" stroke="rgb(30,41,59)" stroke-linecap="round" stroke-linejoin="round" stroke-width="2" />
	<path id="14269" d="M8 4C8.08777 4 8.17399 4.0231 8.25 4.06699C8.32601 4.11087 8.38913 4.17399 8.43301 4.25C8.4769 4.32601 8.5 4.41223 8.5 4.5L8.5 8.5C8.5 8.85107 8.40759 9.19596 8.23205 9.5C8.05651 9.80404 7.80404 10.0565 7.5 10.2321C7.19596 10.4076 6.85107 10.5 6.5 10.5L3.5 10.5C3.14893 10.5 2.80404 10.4076 2.5 10.2321C2.19596 10.0565 1.94349 9.80404 1.76795 9.5C1.59241 9.19596 1.5 8.85107 1.5 8.5L1.5 4.5C1.5 4.41223 1.5231 4.32601 1.56699 4.25C1.61087 4.17399 1.67399 4.11087 1.75 4.06699C1.82601 4.0231 1.91223 4 2 4L9 4C9.42236 4 9.83388 4.13371 10.1756 4.38197C10.5173 4.63022 10.7716 4.98028 10.9021 5.38197C11.0326 5.78365 11.0326 6.21635 10.9021 6.61803C10.7716 7.01972 10.5173 7.36978 10.1756 7.61803C9.83388 7.86629 9.42236 8 9 8L8.5 8" fill-rule="nonzero" stroke="rgb(30,41,59)" stroke-linecap="round" stroke-linejoin="round" stroke-width="2" />
	<path id="14270" d="M3 1L3 2" stroke="rgb(30,41,59)" stroke-linecap="round" stroke-linejoin="round" stroke-width="2" />
	<rect id="path.[object SVGAnimatedString]" width="9.500000" height="7.000000" x="1.000000" y="4.000000" />
</svg>
