<svg viewBox="0 0 12 12" xmlns="http://www.w3.org/2000/svg" xmlns:xlink="http://www.w3.org/1999/xlink" width="12.000000" height="12.000000" fill="none">
	<rect id="svg" width="12.000000" height="12.000000" x="0.000000" y="0.000000" />
	<path id="14235" d="M9.5 4.5L9.5 3C9.5 2.82446 9.45379 2.65202 9.36602 2.5C9.27826 2.34798 9.15202 2.22174 9 2.13397C8.84798 2.04621 8.67554 2 8.5 2L3.5 2C3.32446 2 3.15202 2.04621 3 2.13397C2.84798 2.22174 2.72174 2.34798 2.63397 2.5C2.54621 2.65202 2.5 2.82446 2.5 3L2.5 4.5" fill-rule="nonzero" stroke="rgb(30,41,59)" stroke-linecap="round" stroke-linejoin="round" stroke-width="2" />
	<path id="14236" d="M1.63397 8.5C1.72174 8.65202 1.84798 8.77826 2 8.86602C2.15202 8.95379 2.32446 9 2.5 9L9.5 9C9.67554 9 9.84798 8.95379 10 8.86603C10.152 8.77826 10.2783 8.65202 10.366 8.5C10.4538 8.34798 10.5 8.17554 10.5 8L10.5 5.5C10.5 5.28882 10.4331 5.08306 10.309 4.91221C10.1849 4.74137 10.0099 4.6142 9.80902 4.54894C9.60817 4.48369 9.39183 4.48369 9.19098 4.54894C8.99014 4.6142 8.81511 4.74137 8.69098 4.91221C8.56685 5.08306 8.5 5.28882 8.5 5.5L8.5 6.25C8.5 6.29388 8.48845 6.337 8.46651 6.375C8.44456 6.413 8.413 6.44456 8.375 6.46651C8.337 6.48845 8.29388 6.5 8.25 6.5L3.75 6.5C3.70612 6.5 3.663 6.48845 3.625 6.46651C3.587 6.44456 3.55544 6.413 3.53349 6.375C3.51155 6.337 3.5 6.29388 3.5 6.25L3.5 5.5C3.5 5.28882 3.43315 5.08306 3.30902 4.91221C3.18489 4.74137 3.00986 4.6142 2.80902 4.54894C2.60817 4.48369 2.39183 4.48369 2.19098 4.54894C1.99014 4.6142 1.81511 4.74137 1.69098 4.91221C1.56685 5.08306 1.5 5.28882 1.5 5.5L1.5 8C1.5 8.17554 1.54621 8.34798 1.63397 8.5Z" fill-rule="nonzero" stroke="rgb(30,41,59)" stroke-linecap="round" stroke-linejoin="round" stroke-width="2" />
	<path id="14237" d="M2.5 9L2.5 10" stroke="rgb(30,41,59)" stroke-linecap="round" stroke-linejoin="round" stroke-width="2" />
	<path id="14238" d="M9.5 9L9.5 10" stroke="rgb(30,41,59)" stroke-linecap="round" stroke-linejoin="round" stroke-width="2" />
	<rect id="path.[object SVGAnimatedString]" width="7.000000" height="3.000000" x="2.000000" y="2.000000" />
	<rect id="path.[object SVGAnimatedString]" width="9.000000" height="5.000000" x="1.000000" y="4.000000" />
</svg>
