<svg viewBox="0 0 12 12" xmlns="http://www.w3.org/2000/svg" xmlns:xlink="http://www.w3.org/1999/xlink" width="12.000000" height="12.000000" fill="none">
	<rect id="svg" width="12.000000" height="12.000000" x="0.000000" y="0.000000" />
	<path id="14250" d="M5 1L7 1" stroke="rgb(30,41,59)" stroke-linecap="round" stroke-linejoin="round" stroke-width="2" />
	<path id="14251" d="M10.5 4.00002L9.5 5.00002L8.75 3.15002C8.67927 2.96069 8.55283 2.79723 8.38735 2.6812C8.22186 2.56516 8.0251 2.50199 7.823 2.50002L4.2 2.50002C3.99625 2.49534 3.79594 2.55303 3.62588 2.66535C3.45583 2.77768 3.32416 2.93928 3.2485 3.12852L2.5 5.00002L1.5 4.00002" fill-rule="nonzero" stroke="rgb(30,41,59)" stroke-linecap="round" stroke-linejoin="round" stroke-width="2" />
	<path id="14252" d="M3.5 7L3.505 7" stroke="rgb(30,41,59)" stroke-linecap="round" stroke-linejoin="round" stroke-width="2" />
	<path id="14253" d="M8.5 7L8.505 7" stroke="rgb(30,41,59)" stroke-linecap="round" stroke-linejoin="round" stroke-width="2" />
	<rect id="14254" width="9.000000" height="4.000000" x="1.500000" y="5.000000" rx="2.000000" stroke="rgb(30,41,59)" stroke-linecap="round" stroke-linejoin="round" stroke-width="2" />
	<path id="14255" d="M2.5 9L2.5 10" stroke="rgb(30,41,59)" stroke-linecap="round" stroke-linejoin="round" stroke-width="2" />
	<path id="14256" d="M9.5 9L9.5 10" stroke="rgb(30,41,59)" stroke-linecap="round" stroke-linejoin="round" stroke-width="2" />
	<rect id="path.[object SVGAnimatedString]" width="9.000000" height="3.000000" x="1.000000" y="3.000000" />
	<rect id="rect.[object SVGAnimatedString]" width="9.000000" height="4.000000" x="1.000000" y="5.000000" />
</svg>
