<svg viewBox="0 0 16 16" xmlns="http://www.w3.org/2000/svg" xmlns:xlink="http://www.w3.org/1999/xlink" width="16.000000" height="16.000000" fill="none">
	<rect id="svg" width="16.000000" height="16.000000" x="0.000000" y="0.000000" />
	<path id="14289" d="M12.6667 14L12.6667 12.6667C12.6667 12.1986 12.5435 11.7387 12.3094 11.3333C12.0754 10.9279 11.7388 10.5913 11.3334 10.3573C10.928 10.1232 10.4681 10 10 10L6.00004 10C5.53194 10 5.07209 10.1232 4.66671 10.3573C4.26132 10.5913 3.92469 10.9279 3.69064 11.3333C3.45659 11.7387 3.33337 12.1986 3.33337 12.6667L3.33337 14" fill-rule="nonzero" stroke="rgb(71,85,105)" stroke-linecap="round" stroke-linejoin="round" stroke-width="2" />
	<circle id="14290" cx="8.00004101" cy="4.66666698" r="2.66666675" stroke="rgb(71,85,105)" stroke-linecap="round" stroke-linejoin="round" stroke-width="2" />
	<rect id="path.[object SVGAnimatedString]" width="9.330000" height="4.000000" x="3.000000" y="10.000000" />
	<rect id="circle.[object SVGAnimatedString]" width="5.330000" height="5.000000" x="5.000000" y="2.000000" />
</svg>
